<svg width="20" height="21" fill="none" xmlns="http://www.w3.org/2000/svg"><path d="M14.98 4.349c.778 0 1.408-.626 1.408-1.405V1.473a1.407 1.407 0 1 0-2.815 0v1.471c0 .779.629 1.405 1.406 1.405z" fill="#fff" fill-opacity=".5"/><path d="M19.98 2.5h-2.833v.717a2.144 2.144 0 0 1-4.285 0v-.716H7.144v.716c0 1.18-.96 2.143-2.143 2.143A2.145 2.145 0 0 1 2.86 3.216v-.715L0 2.465v17.892h18.574L20 20.353l-.02-17.852zm-1.406 16.432H1.429V7.502h17.145v11.43z" fill="#fff" fill-opacity=".5"/><path d="M4.978 4.349c.779 0 1.408-.626 1.408-1.405V1.473a1.406 1.406 0 1 0-2.814 0v1.471c0 .779.63 1.405 1.406 1.405zM9.4 9.036H7.15v1.987H9.4V9.036zm-3.522 0h-2.25v1.987h2.25V9.036zm7.165 0H10.79v1.987h2.253V9.036zm3.373 0h-2.25v1.987h2.25V9.036zm-7.016 3.3H7.15v1.985H9.4v-1.985zm3.643 0H10.79v1.985h2.253v-1.985zm3.373 0h-2.25v1.985h2.25v-1.985zM9.4 15.701H7.15v1.986H9.4V15.7zm-3.578-3.365h-2.25v1.985h2.25v-1.985zm0 3.365h-2.25v1.986h2.25V15.7zm7.221 0H10.79v1.986h2.253V15.7zm3.373 0h-2.25v1.986h2.25V15.7z" fill="#fff" fill-opacity=".5"/></svg>