<svg width="35" height="35" viewBox="0 0 35 36" fill="none" xmlns="http://www.w3.org/2000/svg"><path fill-rule="evenodd" clip-rule="evenodd" d="M23.645 10.646l-15.8 5.884a.727.727 0 0 0-.23.136.713.713 0 0 0-.235.444.719.719 0 0 0 .124.506c.001 0 0 0 0 0 .096.137.24.24.412.28h.002v.001h.002l7.725 1.79 8.738-8.876a.694.694 0 0 0-.738-.165zm.661.289l-8.738 8.876 1.761 7.846.001.002v.001a.71.71 0 0 0 .276.419s0-.001 0 0a.699.699 0 0 0 .625.097.699.699 0 0 0 .445-.443l5.793-16.048a.72.72 0 0 0-.163-.75z" fill="#fff"/><path fill-rule="evenodd" clip-rule="evenodd" d="M27.48 3.492A17.27 17.27 0 0 0 16.03.342 17.344 17.344 0 0 0 5.123 5.474c-5.986 6.08-6.824 15.606-1.992 22.65a1.441 1.441 0 0 0 2.023.368 1.495 1.495 0 0 0 .362-2.055C1.487 20.568 2.187 12.63 7.176 7.562a14.454 14.454 0 0 1 9.09-4.277 14.39 14.39 0 0 1 9.543 2.623 1.435 1.435 0 0 0 2.024-.36 1.49 1.49 0 0 0-.353-2.055zm4.287 4.241a1.439 1.439 0 0 0-2.025-.356 1.463 1.463 0 0 0-.396.426c-.3.488-.3 1.131.046 1.63a14.96 14.96 0 0 1 2.598 9.701 14.88 14.88 0 0 1-4.212 9.246 14.43 14.43 0 0 1-10.3 4.329c-2.834 0-5.683-.839-8.16-2.553a1.435 1.435 0 0 0-1.614-.015 1.49 1.49 0 0 0-.023 2.455 17.172 17.172 0 0 0 9.796 3.064c4.504 0 8.981-1.766 12.355-5.193a17.855 17.855 0 0 0 5.054-11.094c.33-4.134-.778-8.268-3.119-11.64z" fill="#fff"/><mask id="a" maskUnits="userSpaceOnUse" x="2" y="2" width="26" height="27"><path fill-rule="evenodd" clip-rule="evenodd" d="M2.111 15.102V2.198h25.457v25.809H2.11V15.102z" fill="#fff"/></mask><g mask="url(#a)"><path fill-rule="evenodd" clip-rule="evenodd" d="M5.666 26.367C1.64 20.497 2.339 12.56 7.329 7.491a14.454 14.454 0 0 1 9.09-4.277 14.39 14.39 0 0 1 9.543 2.622 1.435 1.435 0 0 0 1.606.045 15.29 15.29 0 0 0-9.96-3.683c-8.559 0-15.497 7.047-15.497 15.74 0 3.83 1.348 7.34 3.586 10.069a1.495 1.495 0 0 0-.031-1.64z" fill="#fff"/></g></svg>