<svg width="138" height="36" fill="none" xmlns="http://www.w3.org/2000/svg"><path fill-rule="evenodd" clip-rule="evenodd" d="M138 13.61c-.31.173-.6.412-.932.505-.906.251-1.831.434-2.745.659-.511.126-.667.446-.662.99.031 3.224.016 6.448.015 9.67-.001.956-.078 1.028-1.056 1.03-.565 0-1.13-.013-1.695.003-.529.016-.8-.194-.8-.748.005-4.576.004-9.152.001-13.727 0-.476.215-.709.697-.703.543.006 1.085 0 1.628 0 1.018.001 1.018.002 1.116.802 1.107-.325 2.231-.674 3.367-.979.442-.119.851-.006 1.066.468v2.03zm-37.05-7.675c.158.245.427.48.453.737.065.654.017 1.316.023 1.976.004.454-.214.705-.722.706-.834.001-1.668.008-2.502-.005-.454-.007-.697-.23-.693-.667.006-.681-.036-1.365.022-2.042.02-.243.268-.47.412-.705h3.007zm-49.534 6.357c.444-.232.866-.472 1.305-.677 1.192-.555 2.444-.672 3.719-.416.385.077.84.194 1.093.458.63.66 1.175.452 1.852.101 1.09-.565 2.295-.719 3.507-.685 2.446.068 3.884 1.4 4.092 3.915.138 1.66.113 3.335.13 5.005.02 1.85.009 3.702.002 5.553-.002.761-.156.91-.899.915-.557.005-1.114.004-1.672 0-.816-.003-.939-.116-.94-.935-.005-2.89-.002-5.78-.004-8.67 0-.27-.01-.541-.035-.81-.15-1.593-.615-1.998-2.185-1.912a3.336 3.336 0 0 0-.399.039c-1.662.297-1.711.404-1.693 2.083.034 3.137.02 6.276.03 9.413.002.57-.263.817-.824.798-.602-.021-1.204 0-1.806-.006-.737-.006-.9-.16-.9-.917-.006-2.822-.003-5.644-.004-8.466 0-.384 0-.768-.018-1.151-.069-1.472-.831-2.089-2.262-1.747-.597.143-1.174.42-1.721.712-.162.085-.268.426-.27.651-.016 3.296-.01 6.593-.012 9.89 0 .956-.076 1.028-1.04 1.029-.558.001-1.115-.015-1.672.004-.577.02-.791-.252-.79-.819.009-4.538.008-9.076 0-13.613 0-.547.23-.785.766-.767.512.017 1.025.003 1.538.003 1 .002 1 .002 1.112 1.022zM75.18 23.657c.268-1.058.54-2.113.804-3.172.667-2.675 1.341-5.348 1.985-8.03.137-.571.381-.853.996-.813.664.044 1.332.006 1.998.012.778.007.908.18.696.937-.838 2.978-1.678 5.954-2.52 8.93-.652 2.307-1.29 4.618-1.968 6.917-.443 1.504-1.1 2.872-2.746 3.377-1.795.55-3.599.408-5.382-.058-.211-.055-.483-.428-.487-.657-.03-2.198-.222-1.972 1.757-1.885.599.026 1.196.094 1.794.096 1.196.004 1.681-.368 2.044-1.52.093-.297.166-.6.258-.936-.107-.028-.185-.068-.261-.066-1.11.04-1.819-.535-2.163-1.545-.376-1.1-.684-2.225-1.002-3.345-.88-3.102-1.752-6.207-2.622-9.312-.232-.83-.15-.929.723-.934.644-.003 1.29.03 1.93-.01.576-.036.843.204.976.757a1604.5 1604.5 0 0 0 2.53 10.314c.083.338.246.657.372.984l.287-.041zm49.62-6.23c-.006-1.243-.278-2.305-1.407-2.95-1.013-.578-2.063-.522-3.021.097-1.016.658-1.282 1.688-1.28 2.853h5.708zm-5.672 2.53c-.214 2.003.99 3.412 2.995 3.433 1.493.016 2.991-.09 4.481-.205 1.185-.091 1.256-.074 1.252 1.067-.006 1.947.136 1.623-1.604 1.893-1.881.292-3.791.492-5.684.121-2.826-.554-4.573-2.183-4.913-4.967-.225-1.848-.218-3.791.108-5.62.539-3.023 3.237-4.796 6.459-4.595 3.684.23 5.813 2.241 6.146 5.842.069.75.054 1.507.069 2.26.011.544-.23.785-.826.78-2.587-.023-5.173-.01-7.76-.01h-.723zm-31.443-5.17c2.11 0 4.143.002 6.175 0 1.698-.004 1.61-.128 1.6 1.592 0 .2-.01.403.002.603.034.581-.248.785-.812.78-2.059-.016-4.118-.006-6.178-.006h-.787v7.559c0 1.124-.029 1.15-1.183 1.15-.582 0-1.164-.009-1.746.002-.494.01-.749-.191-.748-.71.01-4.85-.043-9.7.037-14.548.048-2.876 1.77-4.596 4.709-4.69 2.091-.069 4.192.149 6.289.24.547.025.772.302.77.862-.01 2.305.104 1.946-1.922 1.964-1.365.012-2.73-.013-4.096.01-1.487.023-1.946.469-2.073 1.941-.02.245-.034.49-.035.736-.004.802-.002 1.604-.002 2.515zm21.251 1.651c.775-1.33 1.546-2.57 2.229-3.86.363-.683.789-1.02 1.558-.923.519.065 1.052-.008 1.577.02.264.014.524.114.787.175-.096.242-.158.508-.292.723-1.226 1.968-2.45 3.938-3.71 5.883-.289.446-.3.75-.002 1.2 1.415 2.138 2.795 4.302 4.177 6.464.122.193.162.443.24.666-.237.078-.472.212-.712.222-.745.029-1.494-.027-2.236.023-.562.037-.895-.205-1.178-.671-.819-1.347-1.66-2.68-2.494-4.016-.117-.187-.241-.37-.417-.639-.448.75-.86 1.438-1.27 2.127-.529.89-1.024 1.807-1.605 2.66-.18.263-.581.47-.899.503-.717.074-1.446.034-2.169.016-.18-.004-.487-.066-.508-.157-.041-.183.027-.436.133-.605a561.365 561.365 0 0 1 4.202-6.609c.259-.4.275-.672.005-1.082a387.971 387.971 0 0 1-3.868-6.023c-.12-.188-.14-.445-.206-.67.22-.066.439-.182.66-.189.789-.023 1.58.017 2.368-.019.481-.021.769.181 1.016.585.843 1.38 1.707 2.745 2.614 4.196zm-8.067 2.842c0 2.261.003 4.524-.001 6.785-.002.825-.136.965-.884.97-.533.004-1.066.004-1.6 0-.763-.005-.88-.123-.88-.969-.004-4.09-.002-8.179-.002-12.269 0-.457.01-.914-.001-1.37-.014-.541.197-.803.723-.785a22.93 22.93 0 0 0 1.854-.002c.58-.026.801.243.797.854-.014 2.261-.006 4.523-.006 6.785z" fill="#3D4954"/><path fill-rule="evenodd" clip-rule="evenodd" d="M23.645 10.345l-15.8 5.873a.727.727 0 0 0-.23.136.712.712 0 0 0-.185.813.72.72 0 0 0 .074.136c.001 0 0 0 0 0a.7.7 0 0 0 .412.28h.002l.002.001 7.725 1.786 8.738-8.86a.695.695 0 0 0-.738-.165zm.661.289l-8.738 8.86 1.761 7.832v.002h.001v.002c.04.176.142.32.276.418 0 0 0-.001 0 0a.704.704 0 0 0 .499.126.7.7 0 0 0 .571-.471l5.793-16.02a.718.718 0 0 0-.163-.749z" fill="#2A74DB"/><path fill-rule="evenodd" clip-rule="evenodd" d="M27.48 3.203A17.293 17.293 0 0 0 16.03.06 17.356 17.356 0 0 0 5.123 5.182c-5.986 6.07-6.824 15.58-1.992 22.612.282.41.734.631 1.193.631.287 0 .576-.086.83-.265a1.49 1.49 0 0 0 .362-2.051C1.487 20.25 2.187 12.325 7.176 7.266a14.464 14.464 0 0 1 9.09-4.27c3.39-.282 6.778.648 9.543 2.618a1.437 1.437 0 0 0 2.024-.358 1.487 1.487 0 0 0-.353-2.053zm4.287 4.234a1.44 1.44 0 0 0-2.421.07c-.3.488-.3 1.13.046 1.628a14.914 14.914 0 0 1 2.598 9.684 14.843 14.843 0 0 1-4.212 9.23 14.443 14.443 0 0 1-10.3 4.32 14.33 14.33 0 0 1-8.16-2.547 1.437 1.437 0 0 0-1.614-.016 1.486 1.486 0 0 0-.023 2.45 17.193 17.193 0 0 0 9.796 3.06 17.33 17.33 0 0 0 12.355-5.184 17.81 17.81 0 0 0 5.054-11.075c.33-4.127-.778-8.254-3.119-11.62z" fill="#2A74DB"/><mask id="a" maskUnits="userSpaceOnUse" x="2" y="1" width="26" height="27"><path fill-rule="evenodd" clip-rule="evenodd" d="M2.111 14.794V1.912h25.457v25.764H2.11V14.794z" fill="#fff"/></mask><g mask="url(#a)"><path fill-rule="evenodd" clip-rule="evenodd" d="M5.666 26.04C1.64 20.18 2.339 12.255 7.329 7.196a14.464 14.464 0 0 1 9.09-4.27 14.41 14.41 0 0 1 9.543 2.618 1.437 1.437 0 0 0 1.606.044 15.307 15.307 0 0 0-9.96-3.676C9.049 1.912 2.11 8.947 2.11 17.625a15.78 15.78 0 0 0 3.586 10.051 1.49 1.49 0 0 0-.031-1.636z" fill="#2A74DB"/></g></svg>