<svg width="38" height="40" fill="none" xmlns="http://www.w3.org/2000/svg"><path fill-rule="evenodd" clip-rule="evenodd" d="M32.448 6.89A17.853 17.853 0 0 0 6.98 6.888c-7.022 7.12-7.021 18.703.001 25.824a17.851 17.851 0 0 0 25.467-.002c7.021-7.119 7.02-18.703 0-25.82zm-1.965 23.828a15.1 15.1 0 0 1-21.539.002c-5.94-6.023-5.938-15.82 0-21.842a15.1 15.1 0 0 1 21.54 0c5.938 6.022 5.937 15.82 0 21.84zM15.102 12.722c-1.163 0-2.105.955-2.105 2.135 0 1.177.942 2.134 2.105 2.134 1.161 0 2.104-.957 2.104-2.134 0-1.18-.943-2.135-2.104-2.135zm7.44 2.135c0-1.18.942-2.135 2.104-2.135 1.163 0 2.105.955 2.105 2.135 0 1.177-.942 2.134-2.105 2.134-1.162 0-2.105-.957-2.105-2.134zm-2.807 13.775c3.423 0 6.477-1.977 7.782-5.035a1.038 1.038 0 0 0-.53-1.358 1.014 1.014 0 0 0-1.34.54c-.98 2.302-3.302 3.789-5.912 3.789-2.671 0-5.005-1.487-5.948-3.788a1.016 1.016 0 0 0-1.331-.558c-.52.219-.766.824-.55 1.35 1.26 3.074 4.332 5.06 7.829 5.06z" fill="#BBC3CF"/></svg>