<svg width="991" height="991" fill="none" xmlns="http://www.w3.org/2000/svg"><g filter="url(#filter0_d)"><circle cx="495.5" cy="495.5" r="453.5" fill="#FEFEFE" fill-opacity=".45"/></g><g filter="url(#filter1_d)"><circle cx="494.5" cy="502.5" r="382.5" fill="#FEFEFE" fill-opacity=".45"/></g><g filter="url(#filter2_d)"><circle cx="499" cy="503" r="307" fill="#FEFEFE" fill-opacity=".54"/></g><g filter="url(#filter3_d)"><circle cx="499.5" cy="506.5" r="218.5" fill="#fff" fill-opacity=".54"/></g><path d="M557.338 431.57v.001l-39.588 37.387L574 515.833v-100l-16.662 15.737z" fill="#13BC8C"/><path d="M424 415.833v100l56.25-46.875L424 415.833z" fill="#40E4B6"/><path d="M480.25 468.958L424 515.833h75v-29.166l-18.75-17.709z" fill="#29CFA0"/><path d="M499 486.667v29.166h75l-56.25-46.875L499 486.667z" fill="#28C498"/><path d="M440.664 400.095L424 415.833h16.662l.002-15.738zM574 415.833l-16.665-15.739.001 15.739H574zM499 345l-26.578 25.101 53.089-.063L499 345z" fill="#0AD69C"/><path d="M557.337 431.57L574 415.833h-16.663v15.737zM499 486.667l-58.339-55.098.001-15.736H424l56.25 53.125L499 486.667z" fill="#0C926C"/><path d="M440.661 431.569L499 486.667l18.75-17.709 39.587-37.387v-15.738l-.002-15.738-.002-30.095-31.822.038-53.089.063-31.755.038-.003 29.956-.002 15.738-.001 15.736zM461.5 420h75v12.5h-75V420zm0-12.5V395h75v12.5h-75z" fill="#F2F0E3"/><path fill="#F2F0E3" d="M451.5 383.333h89.167v53.333H451.5z"/><path d="M506.011 393.793h-13.879a2.311 2.311 0 0 1-2.313-2.313 2.311 2.311 0 0 1 2.313-2.313h13.879a2.311 2.311 0 0 1 2.314 2.313 2.311 2.311 0 0 1-2.314 2.313zm20.82 37.011h-13.88a2.311 2.311 0 0 1-2.313-2.313 2.311 2.311 0 0 1 2.313-2.313h13.88a2.311 2.311 0 0 1 2.313 2.313 2.311 2.311 0 0 1-2.313 2.313zm-43.952-18.505h-11.566a2.311 2.311 0 0 1-2.313-2.314 2.311 2.311 0 0 1 2.313-2.313h11.566a2.311 2.311 0 0 1 2.314 2.313 2.311 2.311 0 0 1-2.314 2.314zm34.627 2.327h-16.193a2.311 2.311 0 0 1-2.313-2.313 2.311 2.311 0 0 1 2.313-2.313h16.193a2.311 2.311 0 0 1 2.313 2.313 2.311 2.311 0 0 1-2.313 2.313zm-25.374-2.327a2.428 2.428 0 0 1-1.642-.67 2.422 2.422 0 0 1-.671-1.643c0-.601.252-1.205.671-1.642.856-.856 2.429-.856 3.284 0 .417.437.671 1.041.671 1.642 0 .602-.254 1.203-.671 1.643a2.43 2.43 0 0 1-1.642.67zm11.566 18.505h-23.132a2.311 2.311 0 0 1-2.313-2.313 2.311 2.311 0 0 1 2.313-2.313h23.132a2.311 2.311 0 0 1 2.314 2.313 2.311 2.311 0 0 1-2.314 2.313zm-32.385.001a2.43 2.43 0 0 1-1.642-.671 2.421 2.421 0 0 1-.671-1.642c0-.602.252-1.206.671-1.643.856-.856 2.406-.856 3.285 0 .416.437.67 1.041.67 1.643 0 .601-.254 1.202-.67 1.642a2.341 2.341 0 0 1-1.643.671zm55.517-18.506a2.428 2.428 0 0 1-1.642-.67 2.422 2.422 0 0 1-.671-1.643c0-.627.252-1.205.671-1.642.856-.856 2.429-.856 3.285 0a2.38 2.38 0 0 1 .671 1.642c0 .625-.255 1.203-.671 1.643-.44.416-1.041.67-1.643.67zm-43.951 37.011h-11.566a2.311 2.311 0 0 1-2.313-2.313 2.311 2.311 0 0 1 2.313-2.313h11.566a2.311 2.311 0 0 1 2.314 2.313 2.311 2.311 0 0 1-2.314 2.313zm34.699 0h-16.193a2.311 2.311 0 0 1-2.313-2.313 2.311 2.311 0 0 1 2.313-2.313h16.193a2.311 2.311 0 0 1 2.313 2.313 2.311 2.311 0 0 1-2.313 2.313zm-25.446.001a2.38 2.38 0 0 1-1.642-.671 2.422 2.422 0 0 1-.671-1.643c0-.626.252-1.205.671-1.642.856-.856 2.405-.856 3.284 0 .417.437.671 1.041.671 1.642 0 .602-.254 1.203-.671 1.643a2.431 2.431 0 0 1-1.642.671zm34.698 0a2.43 2.43 0 0 1-1.642-.671 2.422 2.422 0 0 1-.671-1.643c0-.601.252-1.205.671-1.642.856-.856 2.429-.856 3.285 0a2.43 2.43 0 0 1 .671 1.642c0 .602-.255 1.203-.671 1.643a2.392 2.392 0 0 1-1.643.671z" fill="#ABABAB"/><defs><filter id="filter0_d" x="0" y="0" width="991" height="991" filterUnits="userSpaceOnUse" color-interpolation-filters="sRGB"><feFlood flood-opacity="0" result="BackgroundImageFix"/><feColorMatrix in="SourceAlpha" values="0 0 0 0 0 0 0 0 0 0 0 0 0 0 0 0 0 0 127 0"/><feOffset/><feGaussianBlur stdDeviation="21"/><feColorMatrix values="0 0 0 0 0.906114 0 0 0 0 0.906114 0 0 0 0 0.906114 0 0 0 0.13 0"/><feBlend in2="BackgroundImageFix" result="effect1_dropShadow"/><feBlend in="SourceGraphic" in2="effect1_dropShadow" result="shape"/></filter><filter id="filter1_d" x="70" y="78" width="849" height="849" filterUnits="userSpaceOnUse" color-interpolation-filters="sRGB"><feFlood flood-opacity="0" result="BackgroundImageFix"/><feColorMatrix in="SourceAlpha" values="0 0 0 0 0 0 0 0 0 0 0 0 0 0 0 0 0 0 127 0"/><feOffset/><feGaussianBlur stdDeviation="21"/><feColorMatrix values="0 0 0 0 0.906114 0 0 0 0 0.906114 0 0 0 0 0.906114 0 0 0 0.36 0"/><feBlend in2="BackgroundImageFix" result="effect1_dropShadow"/><feBlend in="SourceGraphic" in2="effect1_dropShadow" result="shape"/></filter><filter id="filter2_d" x="150" y="154" width="698" height="698" filterUnits="userSpaceOnUse" color-interpolation-filters="sRGB"><feFlood flood-opacity="0" result="BackgroundImageFix"/><feColorMatrix in="SourceAlpha" values="0 0 0 0 0 0 0 0 0 0 0 0 0 0 0 0 0 0 127 0"/><feOffset/><feGaussianBlur stdDeviation="21"/><feColorMatrix values="0 0 0 0 0.906114 0 0 0 0 0.906114 0 0 0 0 0.906114 0 0 0 0.11 0"/><feBlend in2="BackgroundImageFix" result="effect1_dropShadow"/><feBlend in="SourceGraphic" in2="effect1_dropShadow" result="shape"/></filter><filter id="filter3_d" x="239" y="246" width="521" height="521" filterUnits="userSpaceOnUse" color-interpolation-filters="sRGB"><feFlood flood-opacity="0" result="BackgroundImageFix"/><feColorMatrix in="SourceAlpha" values="0 0 0 0 0 0 0 0 0 0 0 0 0 0 0 0 0 0 127 0"/><feOffset/><feGaussianBlur stdDeviation="21"/><feColorMatrix values="0 0 0 0 0.906114 0 0 0 0 0.906114 0 0 0 0 0.906114 0 0 0 0.43 0"/><feBlend in2="BackgroundImageFix" result="effect1_dropShadow"/><feBlend in="SourceGraphic" in2="effect1_dropShadow" result="shape"/></filter></defs></svg>